<svg xmlns="http://www.w3.org/2000/svg" viewBox="0 0 504 449"><defs><style>.cls-1{fill:#fff;}.cls-2{fill:#fdc324;}.cls-3{font-size:45px;font-family:BadaBoomBB, BadaBoom BB;}</style></defs><g id="Calque_2" data-name="Calque 2"><g id="Calque_1-2" data-name="Calque 1"><g id="Calque_2-2" data-name="Calque 2"><g id="Calque_1-2-2" data-name="Calque 1-2"><path class="cls-1" d="M504,449H0V0H504ZM101.88,303.11,10.73,383.26l.83,1,129-92.1.72.68-61.46,82,.68.61,48-43.41a147.6,147.6,0,0,0,48.83,24.17c17.72,5.1,35.88,6.73,54.43,6.87-4.31,28.57-8.55,56.64-12.79,84.72l2.46.47c7.47-37.88,14.16-75.93,22.29-113.75q6.22,50,12.46,100l1-.06c-.93-24.34-1.86-48.68-2.82-73.53a220.65,220.65,0,0,0,84.21-31.05l52.13,55.43,1.06-.88-49.49-73.94.76-.56,67,61.66.69-.67-47.54-57c5.4-6,10.62-11.45,15.32-17.28,2.86-3.54,5.38-4.14,9.71-2.44,20.28,8,40.73,15.54,61.12,23.24,1.5.57,3,1,4.54,1.55l.32-.75L377.43,277.8l.4-.93,102.8,33L481,309q-39.08-22.47-78.36-45c11.29-20.27,17.69-41.43,18.49-64.53l48.42-3.6v-.57l-59.17-1.92-.15-1.2,91.2-37.52c-.1-.32-.21-.64-.32-1l-81.95,22.59a114.5,114.5,0,0,0-27.89-55l82.44-51.59-.59-1L367.33,128.54l-.59-.73L436.2,44.65l-.88-.79-63,60.87c-34.64-23.5-72.85-30-113.8-26.67,1.1-22,2.16-43.39,3.23-64.74l-.83-.17-26.58,95.7-1.08-.14q-6.31-49.51-12.62-99c-.21,4.36-.36,8.68-.18,13,.78,19.32,1.56,38.65,2.58,58,.18,3.55-1,4.86-4.27,5.85a212,212,0,0,0-59.62,28.67c-2.3,1.58-4.56,3.21-6.88,4.85l-27.72-19.64L124,101l46.28,50.16-.65.74-88.9-38-.42.91L126.81,143c-13.18,14.46-23.84,29.72-31.08,47.12-1.68,4-3.77,5.41-8.07,5.26-9.28-.34-18.57-.1-27.86-.1v1.41l62.2,9.85-.09,1.07L8.19,231.21l.13.83L86,221.78C81.26,251.26,86.31,278,101.88,303.11Z"/><path d="M101.88,303.11C86.31,278,81.26,251.26,86,221.78L8.32,232l-.13-.83,113.75-23.6.09-1.07L59.8,196.68v-1.41c9.29,0,18.58-.24,27.86.1,4.3.15,6.39-1.22,8.07-5.26,7.24-17.4,17.9-32.66,31.08-47.12L80.3,114.75l.42-.91,88.9,38,.65-.74L124,101l.56-.64L152.27,120c2.32-1.64,4.58-3.27,6.88-4.85a212,212,0,0,1,59.62-28.67c3.29-1,4.45-2.3,4.27-5.85-1-19.31-1.8-38.64-2.58-58-.18-4.31,0-8.63.18-13q6.3,49.52,12.62,99l1.08.14,26.58-95.7.83.17C260.68,34.59,259.62,56,258.52,78c41-3.36,79.16,3.17,113.8,26.67l63-60.87.88.79-69.46,83.16.59.73L473,68.71l.59,1L391.15,121.3a114.5,114.5,0,0,1,27.89,55l82-22.6c.11.33.22.65.32,1l-91.2,37.52.15,1.2,59.17,1.92v.57L421,199.51c-.8,23.1-7.2,44.26-18.49,64.53Q442,286.63,481,309l-.34.87-102.8-33-.4.93,76.83,40.42L454,319c-1.51-.51-3-1-4.54-1.55-20.39-7.7-40.84-15.27-61.12-23.24-4.33-1.7-6.85-1.1-9.71,2.44-4.7,5.83-9.92,11.25-15.32,17.28l47.54,57-.69.67-67-61.66-.76.56,49.49,73.94-1.06.88-52.13-55.43a220.65,220.65,0,0,1-84.21,31.05c1,24.85,1.89,49.19,2.82,73.53l-1,.06q-6.22-50-12.46-100c-8.13,37.82-14.82,75.87-22.29,113.75l-2.46-.47c4.24-28.08,8.48-56.15,12.79-84.72-18.55-.14-36.71-1.77-54.43-6.87A147.65,147.65,0,0,1,128.54,332l-48,43.41-.68-.61,61.47-81.92-.72-.68-129,92.1-.83-1Zm256.22,8.5a33.13,33.13,0,0,0,3.87-3.53q7.61-9.52,15-19.2c2.13-2.79,2-5.27-1.15-7.51-3-2.12-5.67-4.65-8.49-7l1.28-1.45,76.85,20.88.26-.75L395.15,265c10.93-20.16,18.18-41,19.89-64.2H382.43l-.35-1.42,55.3-22.61-.39-1.13-36.54,9.94a45.74,45.74,0,0,0,7.17-4.39c5.92-4,6.58-5.34,4.86-12.3a40.66,40.66,0,0,0-3.36-9.89c-5.21-9.46-10.86-18.67-16.21-28.06-2.74-4.81-6-6-11.38-3.7-8,3.45-16.4,6.07-24.63,9l-.55-.86,26-31.95-.78-.64-14.26,15.73-.59-.32,4.09-6.78C337.74,82.37,298,81.36,257,83.79c-.8-10.57-1.6-21-2.39-31.47l-1-.08Q243.8,90.1,234,128l-1-.14c-2.83-12.58-5.67-25.15-8.68-38.52-23.81,8.15-45.63,17.9-66.26,30.36l36.82,47.67-1,.93-79.72-36.5-.42.83,19.12,12.85c-1.8,1.12-4.09,1.76-5,3.24-8.29,13.62-16.37,27.37-24.42,41.14-.89,1.52-1.19,3.39-2,5.84L140.7,205c-2.88,1-4.38,1.53-5.89,2-11.4,3.67-22.73,7.57-34.23,10.9-6.19,1.8-8.52,5.83-8.6,11.68-.11,8-.82,16.08.18,23.95,2.11,16.7,2,34.29,15.08,48L70.93,336.27l.74.89,86.22-59.4.83.9L138,313.56c21.62,34.34,55.21,42.88,92.5,43.64,4.87-14.86,9.58-29.26,14.32-43.75,1.69,10,3.63,20,4.93,30,.56,4.27,1.82,5.56,6.24,5.11,28.9-2.91,55.55-13.19,82-24.34,2.61-1.1,2.65-2.64,1.82-4.7-1.38-3.39-2.91-6.72-4.29-10.11-2-4.88-3.88-9.79-5.82-14.69l.91-.53L375,334l.68-.75Z"/><path class="cls-2" d="M358.1,311.61l17.6,21.63-.7.76-44.41-39.8-.91.53c1.94,4.9,3.84,9.81,5.82,14.69,1.38,3.39,2.91,6.72,4.29,10.11.83,2.06.79,3.6-1.82,4.7-26.43,11.15-53.08,21.43-82,24.34-4.42.45-5.68-.84-6.24-5.11-1.3-10-3.24-20-4.93-30-4.74,14.49-9.45,28.89-14.32,43.75-37.29-.76-70.88-9.3-92.5-43.64l20.72-34.9-.83-.9-86.22,59.4-.74-.89,36.31-34.69c-13.07-13.73-13-31.32-15.08-48-1-7.87-.29-16-.18-24,.08-5.85,2.41-9.88,8.6-11.68,11.5-3.33,22.83-7.23,34.23-10.9,1.51-.48,3-1,5.89-2l-39.26-9.32c.82-2.45,1.12-4.32,2-5.84,8-13.77,16.13-27.52,24.42-41.14.9-1.48,3.19-2.12,5-3.24l-19.12-12.85.42-.83L194,168.28l1-.93-36.82-47.67c20.63-12.46,42.45-22.21,66.26-30.36,3,13.37,5.85,25.94,8.68,38.52l1,.14q9.75-37.87,19.51-75.74l1,.08c.79,10.45,1.59,20.9,2.39,31.47,41-2.43,80.79-1.42,113.91,27.66l-4.09,6.78.59.32,14.26-15.73.78.64-26,32,.55.86c8.23-3,16.61-5.6,24.63-9C387,125,390.29,126.16,393,131c5.35,9.39,11,18.6,16.21,28.06a40.66,40.66,0,0,1,3.36,9.89c1.72,7,1.06,8.32-4.86,12.3a45.74,45.74,0,0,1-7.17,4.39l36.43-10,.39,1.13-55.3,22.61.35,1.42H415c-1.71,23.24-9,44-19.89,64.2l50.59,28.07-.26.75-76.85-20.88-1.28,1.45c2.82,2.35,5.5,4.88,8.49,7,3.15,2.24,3.28,4.72,1.15,7.51q-7.4,9.67-15,19.2A33,33,0,0,1,358.1,311.61Z"/></g></g><text class="cls-3" transform="translate(163.02 240.48)">commencer</text></g></g></svg>