<svg xmlns="http://www.w3.org/2000/svg" viewBox="0 0 293.53 249.82"><defs><style>.cls-1{fill:#fff;}</style></defs><g id="Calque_2" data-name="Calque 2"><g id="Calque_1-2" data-name="Calque 1"><path d="M10.29,178.64c6.37-4.71,12.94-9.18,19.06-14.19a185.37,185.37,0,0,0,18.49-16.67c5.7-6.12,5.31-10.69-1.54-15.44-7.19-5-15.09-9-22.92-13-7.2-3.67-14.71-6.73-23.38-10.65,20.21-3.29,39.55-2.89,59.09-9.74-14-16.25-31.64-26.36-47.72-40.51L26,62.34c4.66,1.25,9.3,2.59,14,3.71Q57,70.12,74,74a28.4,28.4,0,0,0,5.46.54c9.78.25,11.82-1.62,8.81-11-4.4-13.75-10-27.14-15.1-40.64-2-5.24-4.25-10.38-6.38-15.57l1.22-1c4.86,5.12,9.54,10.42,14.61,15.32C90.25,29,98,36.32,106.08,43.22a44.18,44.18,0,0,0,12,6.91c6.75,2.73,11.84,1.14,15.17-5.38,3.13-6.15,5.27-12.87,7.34-19.5,1.91-6.15,3.15-12.5,5.67-18.93,2.12,5.07,4.14,10.19,6.4,15.2,2.6,5.75,5,11.65,8.24,17,4.57,7.61,9.55,8.77,16.5,3.17a129.87,129.87,0,0,0,17.2-17.26C201.39,16.51,207.42,8,214.92,0c-.91,5.56-2,11.1-2.69,16.68-1.36,10.38-3.07,20.75-3.64,31.18-.54,9.91,3.2,13.3,12.78,10.77,14.42-3.82,28.5-9,42.7-13.59,3.59-1.18,7.09-2.63,11.74-4.36C266.68,54,254.87,64,248.09,78.52c15,4.56,29.79,1.25,45.44,2.3-5,3.82-9.4,7-13.58,10.38-6.2,5-12.6,9.89-18.29,15.46-9,8.77-8.67,14.52,1.47,22,7.61,5.61,16,10.14,24.06,15.15,1.51.94,3,1.9,5,3.18-12.56,2.21-24.5,4.08-36.32,6.52a63.31,63.31,0,0,0-14.54,5.05c-7.34,3.53-10.37,9-8.09,16.8,3,10.16,7.21,19.95,11,29.85,1.37,3.53,3.12,6.9,5.24,11.51-9.09-3.94-16.9-7.87-25.08-10.73-12.52-4.36-25.13-8.64-38-11.72-10.32-2.47-20.2.9-27.44,8.59a206.09,206.09,0,0,0-19,24.24c-5,7.21-9,15.13-14.43,22.72-.59-5.27-1.06-10.56-1.79-15.81-1.15-8.23-2-16.55-3.85-24.62-2.58-11-6.22-13-16.32-7.68-12.2,6.41-23.78,14-35.56,21.21-4.5,2.75-8.82,5.81-13.93,8.19,3.15-7.23,6.48-14.39,9.37-21.72a134,134,0,0,0,5.76-17.49c1.81-7.52-.53-11.7-8.17-12.34-11.39-1-22.9-.62-34.35-.61-5.3,0-10.6.54-15.9.84Zm226.34,18.42c-2.38-8.22-5.4-16.66-7.2-25.36-2-9.59,1.6-17.53,10.32-22.33a72.75,72.75,0,0,1,14.75-5.88c6.11-1.79,12.43-2.87,19.35-4.41-3.06-2-5.55-3.63-8-5.31-18-12.5-19-23.58-3.26-38.7,3.37-3.23,7-6.24,11.29-10.11-4-.19-6.78-.25-9.56-.47a80.54,80.54,0,0,1-8.92-1c-11-2.06-13.34-7.1-7.84-16.94,2.27-4.07,5.1-7.83,8.17-12.5-2.44.82-4,1.43-5.53,1.84-9,2.33-17.89,5.23-27,6.75-10.73,1.8-17.44-3.8-18.28-14.6-.43-5.61.19-11.3.44-16.94.09-2.19.47-4.36.72-6.55.16.4.33.8.5,1.2C200.14,31.53,194,37.63,187.22,43,175,52.56,165,50.46,157.06,37c-2.06-3.49-3.78-7.18-5.58-10.64-2.45,5.89-4.34,11.8-7.26,17.16-6.1,11.22-15.43,14.53-26.87,9-6.65-3.22-12.56-8-18.68-12.27-2.29-1.58-4.25-3.63-7.4-6.38C93.38,39.69,95.18,44,96.51,48.4a96.24,96.24,0,0,1,3.33,14.05c1.52,10.88-3.08,16.55-14.16,15.7-10.54-.8-21-3.4-31.41-5.2l-5.09-.87c3.79,3.22,6.68,5.46,9.32,8a74.55,74.55,0,0,1,7.84,8.36c5.22,6.78,4,11.47-4,14.67a69.23,69.23,0,0,1-12,3.32c-5.64,1.13-11.35,1.88-18.11,3,2,1.1,3,1.59,4,2.18C42.82,115.64,49.89,119.19,56,124c8.27,6.53,9.26,14.45,2.73,22.76-4.78,6.08-10.94,11.08-16.52,16.52-1.21,1.17-2.57,2.18-4.52,3.82,5.66,0,10.13-.16,14.59,0a91.83,91.83,0,0,1,13.38,1.26c12.46,2.4,17.17,9.57,14.41,22-1.27,5.74-3.29,11.31-5.18,17.66,3-1.94,5.43-3.71,8-5.09,8.94-4.73,17.67-10,27-13.76,9.14-3.63,15.46-.17,19,9.07,1.77,4.62,2.69,9.57,3.8,14.42.73,3.22,1.11,6.51,1.73,10.29,5.12-7.24,9.52-13.89,14.33-20.22,13.85-18.26,31.87-24.41,53.84-17.54C214.17,188.88,225.51,193.18,236.63,197.06Z"/><path class="cls-1" d="M236.63,197.06c-11.12-3.88-22.46-8.18-34-11.79-22-6.87-40-.72-53.84,17.54-4.81,6.33-9.21,13-14.33,20.22-.62-3.78-1-7.07-1.73-10.29-1.11-4.85-2-9.8-3.8-14.42-3.53-9.24-9.85-12.7-19-9.07-9.36,3.72-18.09,9-27,13.76-2.61,1.38-5,3.15-8,5.09,1.89-6.35,3.91-11.92,5.18-17.66,2.76-12.47-2-19.64-14.41-22a91.83,91.83,0,0,0-13.38-1.26c-4.46-.21-8.93,0-14.59,0,2-1.64,3.31-2.65,4.52-3.82,5.58-5.44,11.74-10.44,16.52-16.52,6.53-8.31,5.54-16.23-2.73-22.76-6.08-4.8-13.15-8.35-19.79-12.44-1-.59-2-1.08-4-2.18,6.76-1.09,12.47-1.84,18.11-3a69.23,69.23,0,0,0,12-3.32c8-3.2,9.26-7.89,4-14.67a74.55,74.55,0,0,0-7.84-8.36c-2.64-2.51-5.53-4.75-9.32-8l5.09.87c10.46,1.8,20.87,4.4,31.41,5.2,11.08.85,15.68-4.82,14.16-15.7A96.24,96.24,0,0,0,96.51,48.4c-1.33-4.43-3.13-8.71-5.24-14.49,3.15,2.75,5.11,4.8,7.4,6.38,6.12,4.25,12,9.05,18.68,12.27,11.44,5.52,20.77,2.21,26.87-9,2.92-5.36,4.81-11.27,7.26-17.16,1.8,3.46,3.52,7.15,5.58,10.64C165,50.46,175,52.56,187.22,43c6.77-5.32,12.92-11.42,19.36-17.17-.17-.4-.34-.8-.5-1.2-.25,2.19-.63,4.36-.72,6.55-.25,5.64-.87,11.33-.44,16.94.84,10.8,7.55,16.4,18.28,14.6,9.13-1.52,18-4.42,27-6.75,1.57-.41,3.09-1,5.53-1.84-3.07,4.67-5.9,8.43-8.17,12.5-5.5,9.84-3.12,14.88,7.84,16.94a80.54,80.54,0,0,0,8.92,1c2.78.22,5.57.28,9.56.47-4.33,3.87-7.92,6.88-11.29,10.11-15.73,15.12-14.77,26.2,3.26,38.7,2.43,1.68,4.92,3.28,8,5.31-6.92,1.54-13.24,2.62-19.35,4.41a72.75,72.75,0,0,0-14.75,5.88c-8.72,4.8-12.31,12.74-10.32,22.33C231.23,180.4,234.25,188.84,236.63,197.06Z"/></g></g></svg>